<?xml version="1.0" encoding="UTF-8" standalone="no"?>
<svg
   xmlns:dc="http://purl.org/dc/elements/1.1/"
   xmlns:cc="http://creativecommons.org/ns#"
   xmlns:rdf="http://www.w3.org/1999/02/22-rdf-syntax-ns#"
   xmlns:svg="http://www.w3.org/2000/svg"
   xmlns="http://www.w3.org/2000/svg"
   xmlns:sodipodi="http://sodipodi.sourceforge.net/DTD/sodipodi-0.dtd"
   xmlns:inkscape="http://www.inkscape.org/namespaces/inkscape"
   version="1.1"
   width="32"
   height="32"
   viewBox="0 0 32 32"
   id="svg6"
   sodipodi:docname="location.svg"
   inkscape:version="1.0.1 (3bc2e813f5, 2020-09-07)"
   inkscape:export-filename="C:\Users\magnattic\code\playground\dogspots\lib\assets\location.png"
   inkscape:export-xdpi="3072"
   inkscape:export-ydpi="3072">
  <metadata
     id="metadata12">
    <rdf:RDF>
      <cc:Work
         rdf:about="">
        <dc:format>image/svg+xml</dc:format>
        <dc:type
           rdf:resource="http://purl.org/dc/dcmitype/StillImage" />
        <dc:title>location</dc:title>
      </cc:Work>
    </rdf:RDF>
  </metadata>
  <defs
     id="defs10" />
  <sodipodi:namedview
     pagecolor="#ffffff"
     bordercolor="#666666"
     borderopacity="1"
     objecttolerance="10"
     gridtolerance="10"
     guidetolerance="10"
     inkscape:pageopacity="0"
     inkscape:pageshadow="2"
     inkscape:window-width="1920"
     inkscape:window-height="986"
     id="namedview8"
     showgrid="false"
     inkscape:zoom="20.721237"
     inkscape:cx="-3.1818618"
     inkscape:cy="15.906371"
     inkscape:window-x="-11"
     inkscape:window-y="-11"
     inkscape:window-maximized="1"
     inkscape:current-layer="svg6" />
  <title
     id="title2">location</title>
  <path
     d="m 15.971448,6.9086344 c -4.314844,0 -7.8124997,3.4976556 -7.8124997,7.8124996 0,7.8125 7.8124997,17.1875 7.8124997,17.1875 0,0 7.8125,-9.375 7.8125,-17.1875 0,-4.314844 -3.497656,-7.8124996 -7.8125,-7.8124996 z m 0,12.4999996 c -2.589063,0 -4.6875,-2.098437 -4.6875,-4.6875 0,-2.589062 2.098437,-4.6875 4.6875,-4.6875 2.589063,0 4.6875,2.098438 4.6875,4.6875 0,2.589063 -2.098437,4.6875 -4.6875,4.6875 z"
     id="path4"
     style="stroke-width:0.78125;fill:#000000" />
  <ellipse
     style="fill:#000000;stroke-width:1.17962"
     id="path16"
     cx="7.5"
     cy="7"
     rx="2.5"
     ry="3.5" />
  <ellipse
     style="fill:#000000;stroke-width:1.17962"
     id="path16-3"
     cx="24.5"
     cy="7"
     rx="2.5"
     ry="3.5" />
  <ellipse
     style="fill:#000000;stroke-width:1.17962"
     id="path16-3-4"
     cx="19"
     cy="3.5"
     rx="2.5"
     ry="3.5" />
  <ellipse
     style="fill:#000000;stroke-width:1.17962"
     id="path16-3-4-5"
     cx="13"
     cy="3.5"
     rx="2.5"
     ry="3.5" />
</svg>
